<svg width="28" height="27" viewBox="0 0 28 27" fill="none" xmlns="http://www.w3.org/2000/svg">
<path d="M18.6453 8.54569C18.6453 11.04 16.5029 13.1475 13.7521 13.1475C11.0013 13.1475 8.85889 11.04 8.85889 8.54569C8.85889 6.05134 11.0013 3.94385 13.7521 3.94385C16.5029 3.94385 18.6453 6.05134 18.6453 8.54569Z" stroke="#6E6E82" stroke-width="2"/>
<path d="M13.7521 17.0146C18.3059 17.0146 21.9936 20.2574 22.5114 24.3511H22.5088H22.4992H22.4895H22.4797H22.4699H22.4601H22.4503H22.4403H22.4304H22.4204H22.4104H22.4003H22.3902H22.3801H22.3699H22.3597H22.3495H22.3392H22.3288H22.3185H22.3081H22.2976H22.2871H22.2766H22.266H22.2554H22.2448H22.2341H22.2234H22.2126H22.2018H22.191H22.1801H22.1692H22.1583H22.1473H22.1363H22.1252H22.1141H22.103H22.0918H22.0806H22.0694H22.0581H22.0468H22.0354H22.024H22.0126H22.0011H21.9896H21.9781H21.9665H21.9549H21.9432H21.9315H21.9198H21.908H21.8962H21.8844H21.8725H21.8606H21.8486H21.8367H21.8246H21.8126H21.8005H21.7884H21.7762H21.764H21.7517H21.7395H21.7272H21.7148H21.7024H21.69H21.6776H21.6651H21.6526H21.64H21.6274H21.6148H21.6021H21.5894H21.5767H21.5639H21.5511H21.5383H21.5254H21.5125H21.4995H21.4866H21.4735H21.4605H21.4474H21.4343H21.4211H21.4079H21.3947H21.3815H21.3682H21.3548H21.3415H21.3281H21.3147H21.3012H21.2877H21.2742H21.2606H21.247H21.2334H21.2197H21.206H21.1923H21.1785H21.1647H21.1509H21.137H21.1231H21.1092H21.0952H21.0812H21.0672H21.0531H21.039H21.0249H21.0107H20.9965H20.9823H20.968H20.9537H20.9394H20.9251H20.9107H20.8962H20.8818H20.8673H20.8528H20.8382H20.8236H20.809H20.7943H20.7797H20.7649H20.7502H20.7354H20.7206H20.7058H20.6909H20.676H20.661H20.6461H20.6311H20.616H20.601H20.5859H20.5708H20.5556H20.5404H20.5252H20.5099H20.4947H20.4794H20.464H20.4486H20.4332H20.4178H20.4023H20.3868H20.3713H20.3557H20.3402H20.3245H20.3089H20.2932H20.2775H20.2618H20.246H20.2302H20.2144H20.1985H20.1826H20.1667H20.1507H20.1348H20.1187H20.1027H20.0866H20.0705H20.0544H20.0383H20.0221H20.0059H19.9896H19.9733H19.957H19.9407H19.9243H19.908H19.8915H19.8751H19.8586H19.8421H19.8256H19.809H19.7924H19.7758H19.7592H19.7425H19.7258H19.709H19.6923H19.6755H19.6587H19.6418H19.625H19.6081H19.5911H19.5742H19.5572H19.5402H19.5231H19.5061H19.489H19.4718H19.4547H19.4375H19.4203H19.4031H19.3858H19.3685H19.3512H19.3339H19.3165H19.2991H19.2817H19.2642H19.2468H19.2293H19.2117H19.1942H19.1766H19.159H19.1414H19.1237H19.106H19.0883H19.0705H19.0528H19.035H19.0172H18.9993H18.9814H18.9636H18.9456H18.9277H18.9097H18.8917H18.8737H18.8556H18.8375H18.8194H18.8013H18.7832H18.765H18.7468H18.7285H18.7103H18.692H18.6737H18.6554H18.637H18.6186H18.6002H18.5818H18.5634H18.5449H18.5264H18.5078H18.4893H18.4707H18.4521H18.4335H18.4148H18.3962H18.3775H18.3587H18.34H18.3212H18.3024H18.2836H18.2648H18.2459H18.227H18.2081H18.1892H18.1702H18.1512H18.1322H18.1132H18.0941H18.075H18.0559H18.0368H18.0177H17.9985H17.9793H17.9601H17.9409H17.9216H17.9023H17.883H17.8637H17.8443H17.8249H17.8055H17.7861H17.7667H17.7472H17.7277H17.7082H17.6887H17.6691H17.6496H17.63H17.6103H17.5907H17.571H17.5513H17.5316H17.5119H17.4922H17.4724H17.4526H17.4328H17.4129H17.3931H17.3732H17.3533H17.3334H17.3134H17.2935H17.2735H17.2535H17.2334H17.2134H17.1933H17.1732H17.1531H17.133H17.1128H17.0927H17.0725H17.0523H17.032H17.0118H16.9915H16.9712H16.9509H16.9306H16.9102H16.8898H16.8694H16.849H16.8286H16.8081H16.7876H16.7672H16.7466H16.7261H16.7056H16.685H16.6644H16.6438H16.6231H16.6025H16.5818H16.5611H16.5404H16.5197H16.499H16.4782H16.4574H16.4366H16.4158H16.395H16.3741H16.3532H16.3323H16.3114H16.2905H16.2695H16.2486H16.2276H16.2066H16.1855H16.1645H16.1434H16.1224H16.1013H16.0802H16.059H16.0379H16.0167H15.9955H15.9743H15.9531H15.9319H15.9106H15.8894H15.8681H15.8468H15.8254H15.8041H15.7827H15.7614H15.74H15.7186H15.6971H15.6757H15.6542H15.6328H15.6113H15.5898H15.5682H15.5467H15.5251H15.5036H15.482H15.4604H15.4387H15.4171H15.3955H15.3738H15.3521H15.3304H15.3087H15.2869H15.2652H15.2434H15.2216H15.1998H15.178H15.1562H15.1343H15.1125H15.0906H15.0687H15.0468H15.0249H15.003H14.981H14.959H14.9371H14.9151H14.8931H14.871H14.849H14.8269H14.8049H14.7828H14.7607H14.7386H14.7164H14.6943H14.6721H14.65H14.6278H14.6056H14.5834H14.5612H14.5389H14.5167H14.4944H14.4721H14.4498H14.4275H14.4052H14.3828H14.3605H14.3381H14.3157H14.2934H14.2709H14.2485H14.2261H14.2037H14.1812H14.1587H14.1362H14.1138H14.0912H14.0687H14.0462H14.0236H14.0011H13.9785H13.9559H13.9333H13.9107H13.8881H13.8655H13.8428H13.8202H13.7975H13.7748H13.7521H13.7294H13.7067H13.6841H13.6614H13.6388H13.6161H13.5935H13.5709H13.5483H13.5257H13.5031H13.4806H13.458H13.4355H13.413H13.3905H13.368H13.3455H13.323H13.3006H13.2781H13.2557H13.2333H13.2109H13.1885H13.1661H13.1437H13.1214H13.099H13.0767H13.0544H13.0321H13.0098H12.9876H12.9653H12.9431H12.9208H12.8986H12.8764H12.8542H12.8321H12.8099H12.7878H12.7656H12.7435H12.7214H12.6993H12.6773H12.6552H12.6332H12.6112H12.5891H12.5671H12.5452H12.5232H12.5013H12.4793H12.4574H12.4355H12.4136H12.3917H12.3699H12.348H12.3262H12.3044H12.2826H12.2608H12.239H12.2173H12.1955H12.1738H12.1521H12.1304H12.1088H12.0871H12.0655H12.0438H12.0222H12.0006H11.9791H11.9575H11.936H11.9144H11.8929H11.8714H11.85H11.8285H11.8071H11.7856H11.7642H11.7428H11.7215H11.7001H11.6788H11.6575H11.6361H11.6149H11.5936H11.5723H11.5511H11.5299H11.5087H11.4875H11.4663H11.4452H11.424H11.4029H11.3818H11.3608H11.3397H11.3187H11.2976H11.2766H11.2557H11.2347H11.2137H11.1928H11.1719H11.151H11.1301H11.1093H11.0884H11.0676H11.0468H11.026H11.0053H10.9845H10.9638H10.9431H10.9224H10.9017H10.8811H10.8604H10.8398H10.8192H10.7987H10.7781H10.7576H10.7371H10.7166H10.6961H10.6756H10.6552H10.6348H10.6144H10.594H10.5737H10.5533H10.533H10.5127H10.4924H10.4722H10.452H10.4317H10.4115H10.3914H10.3712H10.3511H10.331H10.3109H10.2908H10.2708H10.2507H10.2307H10.2107H10.1908H10.1708H10.1509H10.131H10.1111H10.0913H10.0714H10.0516H10.0318H10.0121H9.99231H9.97258H9.95287H9.93318H9.91352H9.89388H9.87426H9.85466H9.83508H9.81553H9.79599H9.77648H9.757H9.73753H9.71809H9.69867H9.67927H9.65989H9.64054H9.62121H9.6019H9.58262H9.56335H9.54412H9.5249H9.50571H9.48654H9.46739H9.44826H9.42916H9.41009H9.39103H9.372H9.35299H9.33401H9.31505H9.29611H9.2772H9.25831H9.23944H9.2206H9.20178H9.18298H9.16421H9.14547H9.12675H9.10805H9.08937H9.07072H9.0521H9.0335H9.01492H8.99637H8.97784H8.95933H8.94086H8.9224H8.90397H8.88557H8.86719H8.84883H8.8305H8.8122H8.79392H8.77566H8.75743H8.73923H8.72105H8.7029H8.68477H8.66667H8.64859H8.63054H8.61251H8.59451H8.57653H8.55858H8.54066H8.52276H8.50489H8.48705H8.46923H8.45143H8.43367H8.41593H8.39821H8.38052H8.36286H8.34522H8.32762H8.31003H8.29248H8.27495H8.25744H8.23997H8.22252H8.2051H8.1877H8.17033H8.15299H8.13568H8.11839H8.10113H8.0839H8.06669H8.04951H8.03236H8.01524H7.99815H7.98108H7.96404H7.94702H7.93004H7.91308H7.89615H7.87925H7.86238H7.84553H7.82872H7.81193H7.79517H7.77843H7.76173H7.74505H7.7284H7.71179H7.6952H7.67863H7.6621H7.64559H7.62912H7.61267H7.59625H7.57986H7.5635H7.54717H7.53087H7.5146H7.49835H7.48214H7.46595H7.44979H7.43367H7.41757H7.4015H7.38546H7.36945H7.35347H7.33753H7.32161H7.30572H7.28986H7.27403H7.25823H7.24246H7.22672H7.21101H7.19533H7.17968H7.16406H7.14847H7.13291H7.11738H7.10189H7.08642H7.07098H7.05558H7.04021H7.02486H7.00955H6.99427H6.97902H6.9638H6.94861H6.93345H6.91832H6.90323H6.88817H6.87313H6.85813H6.84316H6.82823H6.81332H6.79844H6.7836H6.76879H6.75401H6.73926H6.72455H6.70986H6.69521H6.68059H6.66601H6.65145H6.63693H6.62244H6.60798H6.59355H6.57916H6.5648H6.55047H6.53618H6.52191H6.50768H6.49348H6.47932H6.46519H6.45109H6.43702H6.42299H6.40899H6.39503H6.38109H6.36719H6.35333H6.33949H6.32569H6.31193H6.29819H6.2845H6.27083H6.2572H6.2436H6.23004H6.21651H6.20301H6.18955H6.17612H6.16273H6.14937H6.13604H6.12275H6.10949H6.09627H6.08308H6.06993H6.05681H6.04373H6.03068H6.01766H6.00468H5.99174H5.97883H5.96595H5.95311H5.9403H5.92753H5.9148H5.9021H5.88943H5.8768H5.86421H5.85165H5.83913H5.82664H5.81419H5.80177H5.78939H5.77705H5.76474H5.75246H5.74023H5.72803H5.71586H5.70373H5.69164H5.67958H5.66756H5.65558H5.64363H5.63172H5.61984H5.608H5.5962H5.58444H5.57271H5.56102H5.54936H5.53774H5.52616H5.51462H5.50311H5.49164H5.48021H5.46881H5.45745H5.44613H5.43485H5.4236H5.41239H5.40122H5.39009H5.37899H5.36793H5.35691H5.34593H5.33498H5.32407H5.3132H5.30237H5.29158H5.28082H5.27011H5.25943H5.24879H5.23819H5.22762H5.2171H5.20661H5.19616H5.18575H5.17538H5.16505H5.15475H5.1445H5.13428H5.12411H5.11397H5.10387H5.09381H5.08379H5.07381H5.06387H5.05396H5.0441H5.03428H5.02449H5.01475H5.00504H4.99538H4.99281C5.51064 20.2574 9.19832 17.0146 13.7521 17.0146Z" stroke="#6E6E82" stroke-width="2"/>
</svg>
