<svg width="25" height="25" viewBox="0 0 25 25" fill="none" xmlns="http://www.w3.org/2000/svg">
<path d="M12.5 5.625C12.5 2.5 14.375 1.25 16.25 1.25C16.25 3.12513 15.3125 5.625 12.5 5.625Z" stroke="white"/>
<mask id="path-2-inside-1" fill="white">
<path fill-rule="evenodd" clip-rule="evenodd" d="M11.3486 7.3909C10.6177 7.15717 9.73536 6.87504 8.75759 6.875C6.23402 6.8749 3.75 9.34203 3.75 12.6314C3.75 16.7431 5.53607 20.0325 7.36659 21.6772C8.71701 22.8905 9.73123 22.5135 10.818 22.1095C11.3896 21.8971 11.9812 21.6772 12.6524 21.6772C13.3358 21.6772 13.9024 21.9052 14.4392 22.1211C15.432 22.5206 16.3225 22.8789 17.66 21.6772C18.8097 20.6442 19.9418 18.9624 20.625 16.8356C19.0356 16.0846 17.9382 14.4843 17.9382 12.6315C17.9382 11.0483 18.7395 9.6495 19.9643 8.80736C19.0082 7.60785 17.6444 6.87495 16.269 6.875C15.2912 6.87504 14.5044 7.15717 13.8525 7.3909C13.3915 7.55618 12.9981 7.69726 12.6524 7.69726C12.3067 7.69726 11.8655 7.55618 11.3486 7.3909Z"/>
</mask>
<path d="M8.75759 6.875L8.75763 5.875L8.75759 6.875ZM11.3486 7.3909L11.6532 6.43841V6.43841L11.3486 7.3909ZM7.36659 21.6772L8.03493 20.9333H8.03493L7.36659 21.6772ZM10.818 22.1095L11.1665 23.0469H11.1665L10.818 22.1095ZM14.4392 22.1211L14.0659 23.0488H14.0659L14.4392 22.1211ZM17.66 21.6772L16.9916 20.9333L17.66 21.6772ZM20.625 16.8356L21.5771 17.1414L21.8453 16.3063L21.0522 15.9315L20.625 16.8356ZM19.9643 8.80736L20.5309 9.63138L21.4153 9.0233L20.7463 8.18404L19.9643 8.80736ZM16.269 6.875L16.2689 5.875L16.269 6.875ZM13.8525 7.3909L13.515 6.44958V6.44958L13.8525 7.3909ZM8.75755 7.875C9.55797 7.87503 10.2995 8.1053 11.044 8.34339L11.6532 6.43841C10.9359 6.20904 9.91274 5.87505 8.75763 5.875L8.75755 7.875ZM4.75 12.6314C4.75 9.80452 6.87201 7.87493 8.75755 7.875L8.75763 5.875C5.59604 5.87488 2.75 8.87953 2.75 12.6314H4.75ZM8.03493 20.9333C6.4226 19.4847 4.75 16.469 4.75 12.6314H2.75C2.75 17.0172 4.64953 20.5803 6.69826 22.421L8.03493 20.9333ZM10.4696 21.1722C9.89234 21.3868 9.5436 21.5041 9.20357 21.4999C8.93075 21.4965 8.56449 21.4091 8.03493 20.9333L6.69826 22.421C7.51911 23.1585 8.33518 23.4893 9.17877 23.4997C9.95516 23.5094 10.6569 23.2362 11.1665 23.0469L10.4696 21.1722ZM12.6524 20.6772C11.7747 20.6772 11.0199 20.9676 10.4696 21.1722L11.1665 23.0469C11.7593 22.8265 12.1878 22.6772 12.6524 22.6772V20.6772ZM14.8125 21.1934C14.2909 20.9835 13.555 20.6772 12.6524 20.6772V22.6772C13.1165 22.6772 13.514 22.8268 14.0659 23.0488L14.8125 21.1934ZM16.9916 20.9333C16.449 21.4208 16.1121 21.4954 15.8995 21.4998C15.6246 21.5055 15.3449 21.4076 14.8125 21.1934L14.0659 23.0488C14.5263 23.2341 15.1882 23.515 15.9412 23.4993C16.7564 23.4824 17.5335 23.1352 18.3283 22.421L16.9916 20.9333ZM19.6729 16.5298C19.0378 18.5069 17.9956 20.0312 16.9916 20.9333L18.3283 22.421C19.6237 21.2571 20.8459 19.4179 21.5771 17.1414L19.6729 16.5298ZM21.0522 15.9315C19.7937 15.3368 18.9382 14.0771 18.9382 12.6315H16.9382C16.9382 14.8915 18.2775 16.8323 20.1977 17.7397L21.0522 15.9315ZM18.9382 12.6315C18.9382 11.3954 19.5624 10.2973 20.5309 9.63138L19.3978 7.98335C17.9166 9.00173 16.9382 10.7012 16.9382 12.6315H18.9382ZM16.269 7.875C17.2888 7.87496 18.3815 8.42601 19.1824 9.43068L20.7463 8.18404C19.6348 6.78969 18.0001 5.87493 16.2689 5.875L16.269 7.875ZM14.19 8.33222C14.8442 8.09765 15.4835 7.87503 16.269 7.875L16.2689 5.875C15.099 5.87505 14.1645 6.21669 13.515 6.44958L14.19 8.33222ZM12.6524 8.69726C13.2103 8.69726 13.7877 8.47646 14.19 8.33222L13.515 6.44958C12.9954 6.6359 12.7859 6.69726 12.6524 6.69726V8.69726ZM11.044 8.34339C11.4977 8.48845 12.1136 8.69726 12.6524 8.69726V6.69726C12.4997 6.69726 12.2333 6.62391 11.6532 6.43841L11.044 8.34339Z" fill="white" mask="url(#path-2-inside-1)"/>
</svg>
