<svg width="33" height="32" viewBox="0 0 33 32" fill="none" xmlns="http://www.w3.org/2000/svg">
<path fill-rule="evenodd" clip-rule="evenodd" d="M23.5359 24.4823L22.9871 23.4615C22.8269 23.1634 22.6784 22.86 22.5419 22.5518C21.7897 20.8548 21.3988 19.0156 21.3988 17.1518V14.0043C21.3988 10.0677 18.2094 6.87646 14.275 6.87646C10.3407 6.87646 7.15129 10.0677 7.15129 14.0043V17.1518C7.15129 19.0156 6.7604 20.8548 6.00823 22.5518C5.87165 22.86 5.72316 23.1634 5.56293 23.4615L5.01417 24.4823H23.5359ZM20.4569 22.5518C19.806 20.8315 19.4694 19.0023 19.4694 17.1518V14.0043C19.4694 11.1339 17.1438 8.80693 14.275 8.80693C11.4063 8.80693 9.08064 11.1339 9.08064 14.0043V17.1518C9.08064 19.0023 8.74411 20.8315 8.09315 22.5518H20.4569Z" fill="#6E6E82"/>
<path fill-rule="evenodd" clip-rule="evenodd" d="M11.3961 26.2683C11.931 26.2683 12.3647 26.6429 12.3647 27.1049C12.3647 27.3115 12.4118 27.516 12.5033 27.7068C12.5948 27.8976 12.7289 28.071 12.898 28.217C13.0671 28.3631 13.2678 28.4789 13.4887 28.558C13.7097 28.637 13.9464 28.6777 14.1856 28.6777C14.4247 28.6777 14.6615 28.637 14.8824 28.558C15.1033 28.4789 15.304 28.3631 15.4731 28.217C15.6422 28.071 15.7763 27.8976 15.8679 27.7068C15.9594 27.516 16.0065 27.3115 16.0065 27.1049C16.0065 26.6429 16.4401 26.2683 16.975 26.2683C17.51 26.2683 17.9436 26.6429 17.9436 27.1049C17.9436 27.5312 17.8464 27.9533 17.6575 28.3471C17.4687 28.7409 17.1919 29.0987 16.8429 29.4001C16.4939 29.7016 16.0796 29.9406 15.6237 30.1038C15.1678 30.2669 14.6791 30.3509 14.1856 30.3509C13.692 30.3509 13.2034 30.2669 12.7474 30.1038C12.2915 29.9406 11.8772 29.7016 11.5282 29.4001C11.1793 29.0987 10.9024 28.7409 10.7136 28.3471C10.5247 27.9533 10.4275 27.5312 10.4275 27.1049C10.4275 26.6429 10.8612 26.2683 11.3961 26.2683Z" fill="#6E6E82"/>
<path fill-rule="evenodd" clip-rule="evenodd" d="M3.98518 23.5467C3.98518 22.983 4.41602 22.5261 4.94748 22.5261H23.4236C23.9551 22.5261 24.3859 22.983 24.3859 23.5467C24.3859 24.1104 23.9551 24.5673 23.4236 24.5673H4.94748C4.41602 24.5673 3.98518 24.1104 3.98518 23.5467Z" fill="#6E6E82"/>
<ellipse cx="23.0681" cy="9.01075" rx="8.98022" ry="8.53614" fill="#FF6F00"/>
<path d="M24.212 12.6084H22.6598V6.625L20.8067 7.19971V5.9375L24.0455 4.77734H24.212V12.6084Z" fill="white"/>
</svg>
