<svg width="19" height="18" viewBox="0 0 19 18" fill="none" xmlns="http://www.w3.org/2000/svg">
<path d="M9.65528 12.8139C9.93032 12.805 10.1924 12.6975 10.3918 12.5118L16.0033 7.23864C16.2182 7.03651 16.3422 6.75909 16.3481 6.46744C16.3541 6.17579 16.2414 5.89379 16.0349 5.68346C15.8284 5.47313 15.545 5.35172 15.247 5.34592C14.9491 5.34013 14.661 5.45043 14.4461 5.65256L9.61319 10.191L4.78029 5.65256C4.56542 5.45043 4.27732 5.34013 3.97937 5.34592C3.68141 5.35171 3.39801 5.47313 3.19151 5.68346C2.98501 5.89378 2.87233 6.17578 2.87825 6.46744C2.88417 6.75909 3.0082 7.0365 3.22307 7.23864L8.83458 12.5118C8.94367 12.6135 9.07255 12.6926 9.21355 12.7445C9.35454 12.7964 9.50477 12.82 9.65528 12.8139Z" fill="#6E6E82"/>
</svg>
