<svg width="50" height="50" viewBox="0 0 50 50" fill="none" xmlns="http://www.w3.org/2000/svg">
<path fill-rule="evenodd" clip-rule="evenodd" d="M17.7475 23.5413H23.2957V3.12466H17.7475V23.5413ZM14.7163 26.4516H26.325V0.217773H14.7163V26.4516Z" fill="white"/>
<path fill-rule="evenodd" clip-rule="evenodd" d="M0.138184 32.207H49.4817V29.3086H0.138184V32.207Z" fill="white"/>
<path fill-rule="evenodd" clip-rule="evenodd" d="M3.15825 43.5329H17.421V37.9997H3.15825V43.5329ZM0.138184 49.7118H3.15825V46.4279H20.4418V35.1021H0.138184V49.7118Z" fill="white"/>
<path fill-rule="evenodd" clip-rule="evenodd" d="M37.8734 3.12466V26.4513H40.9027V8.94382L46.4498 3.12697V26.4513H49.4821V0.217773H45.2243L40.9027 4.73627V0.217773H36.6468L29.2925 7.84302V26.4513H32.3256V8.94497L37.8734 3.12466Z" fill="white"/>
<path fill-rule="evenodd" clip-rule="evenodd" d="M26.4176 43.5329H34.8328V37.9997H26.4176V43.5329ZM37.9837 43.5329H46.463V37.9997H37.9837V43.5329ZM23.396 46.4279H34.8332V49.7118H37.9837V46.4279H49.4827V35.1021H23.396V46.4279Z" fill="white"/>
<path fill-rule="evenodd" clip-rule="evenodd" d="M3.17101 8.94497L8.71694 3.12697V23.5417H3.17101V8.94497ZM8.71694 26.4513H11.7485V0.217773H7.49219L0.138672 7.84302V26.4513H8.71694Z" fill="white"/>
</svg>
