<svg width="46" height="41" viewBox="0 0 46 41" fill="none" xmlns="http://www.w3.org/2000/svg">
<path d="M14.8578 29.8641H15.1388L14.9824 29.6306C14.1291 28.3569 12.6874 27.6086 11.2248 27.6086C9.76216 27.6086 8.32048 28.3569 7.46712 29.6306L7.31069 29.8641H7.59174H14.8578ZM15.6583 20.0698C15.6583 22.2035 13.6915 23.9642 11.2246 23.9642C8.75779 23.9642 6.79096 22.2035 6.79096 20.0698C6.79096 17.9361 8.75779 16.1754 11.2246 16.1754C13.6915 16.1754 15.6583 17.9361 15.6583 20.0698ZM11.2246 21.7753C12.2629 21.7753 13.1376 21.0288 13.1376 20.0698C13.1376 19.1107 12.2629 18.3642 11.2246 18.3642C10.1863 18.3642 9.31169 19.1107 9.31169 20.0698C9.31169 21.0288 10.1863 21.7753 11.2246 21.7753ZM18.1655 30.9912C18.2182 31.272 18.1137 31.5319 17.9031 31.7276C17.6908 31.9249 17.3726 32.0529 17.0179 32.0529H5.43159C5.07692 32.0529 4.75877 31.9249 4.54642 31.7276C4.33581 31.5319 4.23137 31.272 4.28403 30.9912C4.87725 27.827 7.75567 25.4197 11.2248 25.4197C14.6939 25.4197 17.5723 27.827 18.1655 30.9912Z" fill="#FF6F00" stroke="white" stroke-width="0.3"/>
<path d="M36.1748 29.8374H36.2998V29.7124L36.2998 15.8489V15.7729L36.2323 15.7379L24.9127 9.87395L24.8576 9.8454L24.8015 9.87206L16.3399 13.8953C15.7056 14.1969 14.9222 13.9825 14.5896 13.4379C14.2636 12.9042 14.4817 12.2284 15.1091 11.9301L23.5708 7.90685C24.4032 7.51104 25.4108 7.52744 26.2258 7.94966L37.5454 13.8136C38.3718 14.2417 38.8705 15.0185 38.8705 15.8489L38.8705 29.7124C38.8705 31.0037 37.6787 32.0763 36.1748 32.0763H23.4815C22.7564 32.0763 22.1961 31.5609 22.1961 30.9569C22.1961 30.3529 22.7564 29.8374 23.4815 29.8374H36.1748Z" fill="#2F3241" stroke="white" stroke-width="0.25"/>
<path d="M20.6611 18.512C20.6611 17.8247 21.2926 17.2676 22.0715 17.2676C22.8504 17.2676 23.4819 17.8247 23.4819 18.512V19.7564C23.4819 20.4437 22.8504 21.0009 22.0715 21.0009C21.2926 21.0009 20.6611 20.4437 20.6611 19.7564V18.512Z" fill="#2F3241"/>
<path d="M27.713 17.2676C26.934 17.2676 26.3026 17.8247 26.3026 18.512V19.7564C26.3026 20.4437 26.934 21.0009 27.713 21.0009C28.4919 21.0009 29.1233 20.4437 29.1233 19.7564V18.512C29.1233 17.8247 28.4919 17.2676 27.713 17.2676Z" fill="#2F3241"/>
<path d="M20.6611 23.4897C20.6611 22.8024 21.2926 22.2453 22.0715 22.2453C22.8504 22.2453 23.4819 22.8024 23.4819 23.4897V24.7341C23.4819 25.4214 22.8504 25.9786 22.0715 25.9786C21.2926 25.9786 20.6611 25.4214 20.6611 24.7341V23.4897Z" fill="#2F3241"/>
<path d="M27.713 22.2453C26.934 22.2453 26.3026 22.8024 26.3026 23.4897V24.7341C26.3026 25.4214 26.934 25.9786 27.713 25.9786C28.4919 25.9786 29.1233 25.4214 29.1233 24.7341V23.4897C29.1233 22.8024 28.4919 22.2453 27.713 22.2453Z" fill="#2F3241"/>
</svg>
