<svg width="54" height="40" viewBox="0 0 54 40" fill="none" xmlns="http://www.w3.org/2000/svg">
<path d="M25.3703 19.6218C27.2343 19.6218 28.7453 18.2886 28.7453 16.6439C28.7453 14.9993 27.2343 13.666 25.3703 13.666C23.5063 13.666 21.9953 14.9993 21.9953 16.6439C21.9953 18.2886 23.5063 19.6218 25.3703 19.6218Z" fill="#2F3241"/>
<path fill-rule="evenodd" clip-rule="evenodd" d="M17.4704 6.75372C17.4704 6.1859 17.9964 5.72559 18.6452 5.72559H49.9711C51.9175 5.72559 53.4953 7.10652 53.4953 8.80999V36.3908C53.4953 38.0942 51.9175 39.4752 49.9711 39.4752H9.76947C7.82313 39.4752 6.2453 38.0942 6.2453 36.3908V16.5781C6.2453 16.0103 6.77124 15.55 7.42002 15.55C8.06881 15.55 8.59475 16.0103 8.59475 16.5781V36.3908C8.59475 36.9586 9.12069 37.4189 9.76947 37.4189H49.9711C50.6199 37.4189 51.1458 36.9586 51.1458 36.3908V8.80999C51.1458 8.24217 50.6199 7.78186 49.9711 7.78186H18.6452C17.9964 7.78186 17.4704 7.32154 17.4704 6.75372Z" fill="#2F3241"/>
<path fill-rule="evenodd" clip-rule="evenodd" d="M20.4842 25.7491C20.0122 25.334 19.1845 25.3391 18.721 25.7601L8.30777 35.2172C7.88286 35.6031 7.14096 35.6448 6.65068 35.3104C6.1604 34.9759 6.10741 34.392 6.53232 34.0061L16.9455 24.549C18.3361 23.2861 20.8193 23.2706 22.2351 24.5161L30.2035 31.5258L37.5481 24.59C38.9082 23.3056 41.3922 23.2532 42.8377 24.4785L53.1814 33.2462C53.6229 33.6204 53.5953 34.2054 53.1199 34.5529C52.6445 34.9004 51.9012 34.8787 51.4597 34.5045L41.1161 25.7368C40.6342 25.3284 39.8062 25.3458 39.3528 25.774L31.7869 32.9188L36.3583 36.9402C36.7909 37.3207 36.7497 37.9053 36.2662 38.2458C35.7827 38.5863 35.04 38.5538 34.6074 38.1732L20.4842 25.7491Z" fill="#2F3241"/>
<path fill-rule="evenodd" clip-rule="evenodd" d="M7.37024 0.760742C7.99156 0.760742 8.49524 1.22225 8.49524 1.79156V11.6416C8.49524 12.2109 7.99156 12.6724 7.37024 12.6724C6.74892 12.6724 6.24524 12.2109 6.24524 11.6416V1.79156C6.24524 1.22225 6.74892 0.760742 7.37024 0.760742Z" fill="#FF6F00"/>
<path fill-rule="evenodd" clip-rule="evenodd" d="M0.620239 6.71822C0.620239 6.17 1.14329 5.72559 1.78851 5.72559H12.952C13.5972 5.72559 14.1202 6.17 14.1202 6.71822C14.1202 7.26644 13.5972 7.71086 12.952 7.71086H1.78851C1.14329 7.71086 0.620239 7.26644 0.620239 6.71822Z" fill="#FF6F00"/>
</svg>
