<svg width="19" height="17" viewBox="0 0 19 17" fill="none" xmlns="http://www.w3.org/2000/svg">
<path fill-rule="evenodd" clip-rule="evenodd" d="M9.14301 2.58846C5.41508 2.58846 2.39301 5.25497 2.39301 8.54427C2.39301 11.8336 5.41508 14.5001 9.14301 14.5001C12.8709 14.5001 15.893 11.8336 15.893 8.54427C15.893 5.25497 12.8709 2.58846 9.14301 2.58846ZM9.14301 0.603189C4.17244 0.603189 0.143007 4.15853 0.143007 8.54427C0.143007 12.93 4.17244 16.4854 9.14301 16.4854C14.1136 16.4854 18.143 12.93 18.143 8.54427C18.143 4.15853 14.1136 0.603189 9.14301 0.603189Z" fill="#DCDCE7"/>
<path d="M10.268 11.5222C10.268 12.0704 9.76433 12.5148 9.14301 12.5148C8.52169 12.5148 8.01801 12.0704 8.01801 11.5222V8.54427C8.01801 7.99605 8.52169 7.55163 9.14301 7.55163C9.76433 7.55163 10.268 7.99605 10.268 8.54427V11.5222Z" fill="#DCDCE7"/>
<path d="M10.268 5.56636C10.268 6.11458 9.76433 6.559 9.14301 6.559C8.52169 6.559 8.01801 6.11458 8.01801 5.56636C8.01801 5.01815 8.52169 4.57373 9.14301 4.57373C9.76433 4.57373 10.268 5.01815 10.268 5.56636Z" fill="#DCDCE7"/>
</svg>
