<svg width="19" height="17" viewBox="0 0 19 17" fill="none" xmlns="http://www.w3.org/2000/svg">
<path fill-rule="evenodd" clip-rule="evenodd" d="M9.3064 14.7957C13.0484 14.7957 16.0819 12.1191 16.0819 8.81732C16.0819 5.51557 13.0484 2.83897 9.3064 2.83897C5.56437 2.83897 2.53085 5.51557 2.53085 8.81732C2.53085 12.1191 5.56437 14.7957 9.3064 14.7957ZM9.3064 16.7885C14.2958 16.7885 18.3405 13.2197 18.3405 8.81732C18.3405 4.41499 14.2958 0.846191 9.3064 0.846191C4.31702 0.846191 0.272339 4.41499 0.272339 8.81732C0.272339 13.2197 4.31702 16.7885 9.3064 16.7885Z" fill="#FF6F00"/>
<path d="M8.17714 5.82815C8.17714 5.27786 8.68272 4.83176 9.3064 4.83176C9.93007 4.83176 10.4357 5.27786 10.4357 5.82815V8.81732C10.4357 9.36761 9.93007 9.81371 9.3064 9.81371C8.68272 9.81371 8.17714 9.36761 8.17714 8.81732V5.82815Z" fill="#FF6F00"/>
<path d="M8.17714 11.8065C8.17714 11.2562 8.68272 10.8101 9.3064 10.8101C9.93007 10.8101 10.4357 11.2562 10.4357 11.8065C10.4357 12.3568 9.93007 12.8029 9.3064 12.8029C8.68272 12.8029 8.17714 12.3568 8.17714 11.8065Z" fill="#FF6F00"/>
</svg>
