<svg width="6" height="9" viewBox="0 0 6 9" fill="none" xmlns="http://www.w3.org/2000/svg">
<path d="M0.16429 4.06548C0.171004 3.89994 0.251972 3.74218 0.391807 3.62218L4.36301 0.244758C4.51523 0.115434 4.72415 0.0407783 4.9438 0.0372162C5.16344 0.033654 5.37581 0.101476 5.53421 0.225763C5.69261 0.35005 5.78405 0.52062 5.78841 0.69995C5.79277 0.879281 5.70971 1.05268 5.55748 1.18201L2.13955 4.09081L5.55748 6.99961C5.70971 7.12893 5.79277 7.30233 5.78841 7.48166C5.78405 7.66099 5.69261 7.83156 5.53421 7.95585C5.37581 8.08014 5.16344 8.14796 4.9438 8.1444C4.72415 8.14084 4.51523 8.06618 4.363 7.93686L0.391807 4.55943C0.315226 4.49378 0.255621 4.41621 0.216533 4.33134C0.177446 4.24648 0.159675 4.15606 0.16429 4.06548Z" fill="#6E6E82"/>
</svg>
