<svg width="46" height="40" viewBox="0 0 46 40" fill="none" xmlns="http://www.w3.org/2000/svg">
<mask id="path-1-inside-1" fill="white">
<rect x="9.74524" y="15.9736" width="27" height="17.8674" rx="1"/>
</mask>
<rect x="9.74524" y="15.9736" width="27" height="17.8674" rx="1" stroke="#2F3241" stroke-width="4" mask="url(#path-1-inside-1)"/>
<path d="M31.1204 16.9668V13.9229C31.1204 9.57361 27.5946 6.04785 23.2454 6.04785V6.04785C18.8961 6.04785 15.3704 9.57361 15.3704 13.9229V16.9668" stroke="#2F3241" stroke-width="2"/>
<path d="M26.6204 15.9734V13.3926C26.6204 11.5286 25.1093 10.0176 23.2454 10.0176V10.0176C21.3814 10.0176 19.8704 11.5286 19.8704 13.3926V15.9734" stroke="#2F3241" stroke-width="2"/>
<mask id="path-4-inside-2" fill="white">
<path fill-rule="evenodd" clip-rule="evenodd" d="M26.6204 25.5499C27.3204 24.85 27.7452 23.9306 27.7452 22.9237C27.7452 20.7308 25.7305 18.9531 23.2452 18.9531C20.76 18.9531 18.7452 20.7308 18.7452 22.9237C18.7452 23.9307 19.1701 24.8502 19.8704 25.5501V27.4889C19.8704 29.3528 21.3814 30.8639 23.2454 30.8639C25.1093 30.8639 26.6204 29.3528 26.6204 27.4889V25.5499Z"/>
</mask>
<path d="M26.6204 25.5499L25.2063 24.1355L24.6204 24.7213V25.5499H26.6204ZM19.8704 25.5501H21.8704V24.7215L21.2843 24.1356L19.8704 25.5501ZM25.7452 22.9237C25.7452 23.3457 25.5715 23.7704 25.2063 24.1355L28.0344 26.9643C29.0694 25.9295 29.7452 24.5155 29.7452 22.9237H25.7452ZM23.2452 20.9531C24.8686 20.9531 25.7452 22.0633 25.7452 22.9237H29.7452C29.7452 19.3983 26.5925 16.9531 23.2452 16.9531V20.9531ZM20.7452 22.9237C20.7452 22.0633 21.6219 20.9531 23.2452 20.9531V16.9531C19.898 16.9531 16.7452 19.3983 16.7452 22.9237H20.7452ZM21.2843 24.1356C20.919 23.7705 20.7452 23.3457 20.7452 22.9237H16.7452C16.7452 24.5157 17.4213 25.9299 18.4564 26.9646L21.2843 24.1356ZM21.8704 27.4889V25.5501H17.8704V27.4889H21.8704ZM23.2454 28.8639C22.486 28.8639 21.8704 28.2482 21.8704 27.4889H17.8704C17.8704 30.4574 20.2768 32.8639 23.2454 32.8639V28.8639ZM24.6204 27.4889C24.6204 28.2482 24.0048 28.8639 23.2454 28.8639V32.8639C26.2139 32.8639 28.6204 30.4574 28.6204 27.4889H24.6204ZM24.6204 25.5499V27.4889H28.6204V25.5499H24.6204Z" fill="#FF6F00" mask="url(#path-4-inside-2)"/>
</svg>
