<svg width="55" height="35" viewBox="0 0 55 35" fill="none" xmlns="http://www.w3.org/2000/svg">
<g id="MasterCard">
<rect id="Rectangle" width="50" height="35" rx="3" fill="#0F3560"/>
<g id="Group">
<g id="Group_2">
<path id="Vector" d="M29.1152 26.1022H19.5459V8.9043H29.1152V26.1022Z" fill="#FF5F00"/>
<g id="Group_3">
<path id="Vector_2" d="M20.1589 17.5019C20.1589 14.0133 21.7923 10.9057 24.336 8.90298C22.4759 7.43853 20.1283 6.56445 17.5771 6.56445C11.5371 6.56445 6.64111 11.4613 6.64111 17.5019C6.64111 23.5426 11.5371 28.4395 17.5771 28.4395C20.1283 28.4395 22.4759 27.5654 24.336 26.1009C21.7923 24.0982 20.1589 20.9906 20.1589 17.5019Z" fill="#EB001B"/>
</g>
<g id="Group_4">
<path id="Vector_3" d="M42.0212 17.5019C42.0212 23.5426 37.1252 28.4395 31.0853 28.4395C28.534 28.4395 26.1865 27.5654 24.3257 26.1009C26.87 24.0982 28.5034 20.9906 28.5034 17.5019C28.5034 14.0133 26.87 10.9057 24.3257 8.90298C26.1865 7.43853 28.534 6.56445 31.0853 6.56445C37.1252 6.56445 42.0212 11.4613 42.0212 17.5019Z" fill="#F79E1B"/>
</g>
</g>
<g id="Group_5">
<path id="Vector_4" d="M14.8702 17.5712C14.8702 17.0934 15.1832 16.7009 15.6948 16.7009C16.1836 16.7009 16.5136 17.0765 16.5136 17.5712C16.5136 18.0658 16.1836 18.4414 15.6948 18.4414C15.1832 18.4414 14.8702 18.0489 14.8702 17.5712ZM17.0708 17.5712V16.2121H16.4798V16.5421C16.2923 16.2974 16.0079 16.1438 15.6213 16.1438C14.8591 16.1438 14.2616 16.7413 14.2616 17.5712C14.2616 18.4017 14.8591 18.9985 15.6213 18.9985C16.0079 18.9985 16.2923 18.8449 16.4798 18.6002V18.9302H17.0708V17.5712ZM37.0421 17.5712C37.0421 17.0934 37.3552 16.7009 37.8668 16.7009C38.3562 16.7009 38.6855 17.0765 38.6855 17.5712C38.6855 18.0658 38.3562 18.4414 37.8668 18.4414C37.3552 18.4414 37.0421 18.0489 37.0421 17.5712ZM39.2433 17.5712V15.1206H38.6517V16.5421C38.4642 16.2974 38.1798 16.1438 37.7932 16.1438C37.031 16.1438 36.4335 16.7413 36.4335 17.5712C36.4335 18.4017 37.031 18.9985 37.7932 18.9985C38.1798 18.9985 38.4642 18.8449 38.6517 18.6002V18.9302H39.2433V17.5712ZM24.4067 16.6729C24.7875 16.6729 25.0322 16.9118 25.0947 17.3323H23.6843C23.7474 16.9398 23.9856 16.6729 24.4067 16.6729ZM24.4184 16.1438C23.6218 16.1438 23.0646 16.7237 23.0646 17.5712C23.0646 18.4355 23.6446 18.9985 24.4581 18.9985C24.8675 18.9985 25.2424 18.8963 25.5724 18.6178L25.2828 18.1797C25.055 18.3613 24.7647 18.4642 24.492 18.4642C24.1112 18.4642 23.7643 18.2878 23.6791 17.7983H25.6974C25.7033 17.7248 25.7091 17.6506 25.7091 17.5712C25.7033 16.7237 25.18 16.1438 24.4184 16.1438ZM31.5546 17.5712C31.5546 17.0934 31.8677 16.7009 32.3793 16.7009C32.8681 16.7009 33.1981 17.0765 33.1981 17.5712C33.1981 18.0658 32.8681 18.4414 32.3793 18.4414C31.8677 18.4414 31.5546 18.0489 31.5546 17.5712ZM33.7552 17.5712V16.2121H33.1642V16.5421C32.9761 16.2974 32.6923 16.1438 32.3057 16.1438C31.5435 16.1438 30.946 16.7413 30.946 17.5712C30.946 18.4017 31.5435 18.9985 32.3057 18.9985C32.6923 18.9985 32.9761 18.8449 33.1642 18.6002V18.9302H33.7552V17.5712ZM28.2169 17.5712C28.2169 18.3958 28.791 18.9985 29.6671 18.9985C30.0765 18.9985 30.3492 18.9074 30.6447 18.6744L30.3609 18.1966C30.139 18.3561 29.9059 18.4414 29.6495 18.4414C29.1776 18.4355 28.8307 18.0945 28.8307 17.5712C28.8307 17.0478 29.1776 16.7068 29.6495 16.7009C29.9059 16.7009 30.139 16.7862 30.3609 16.9457L30.6447 16.4679C30.3492 16.2349 30.0765 16.1438 29.6671 16.1438C28.791 16.1438 28.2169 16.7465 28.2169 17.5712ZM35.8367 16.1438C35.4956 16.1438 35.2737 16.3032 35.1201 16.5421V16.2121H34.5343V18.9302H35.1259V17.4065C35.1259 16.9567 35.3192 16.7068 35.7059 16.7068C35.8256 16.7068 35.9506 16.7237 36.0756 16.7751L36.2578 16.218C36.127 16.1666 35.9564 16.1438 35.8367 16.1438ZM19.9938 16.4282C19.7094 16.2408 19.3176 16.1438 18.8854 16.1438C18.1968 16.1438 17.7535 16.4738 17.7535 17.014C17.7535 17.4572 18.0835 17.7306 18.6914 17.8159L18.9706 17.8556C19.2948 17.9011 19.4477 17.9864 19.4477 18.14C19.4477 18.3503 19.2316 18.47 18.8281 18.47C18.4187 18.47 18.1232 18.3392 17.924 18.1856L17.6455 18.6458C17.9696 18.8846 18.379 18.9985 18.8222 18.9985C19.6072 18.9985 20.0622 18.6288 20.0622 18.1114C20.0622 17.6336 19.7042 17.3837 19.1125 17.2984L18.834 17.2581C18.5782 17.2242 18.3731 17.1735 18.3731 16.9912C18.3731 16.792 18.5665 16.6729 18.8906 16.6729C19.2375 16.6729 19.5734 16.8038 19.738 16.906L19.9938 16.4282ZM27.6194 16.1438C27.2784 16.1438 27.0564 16.3032 26.9035 16.5421V16.2121H26.3177V18.9302H26.9087V17.4065C26.9087 16.9567 27.102 16.7068 27.4886 16.7068C27.6084 16.7068 27.7333 16.7237 27.8583 16.7751L28.0405 16.218C27.9097 16.1666 27.7392 16.1438 27.6194 16.1438ZM22.5758 16.2121H21.6093V15.3874H21.0118V16.2121H20.4605V16.7523H21.0118V17.9923C21.0118 18.623 21.2565 18.9985 21.9555 18.9985C22.212 18.9985 22.5075 18.9191 22.6949 18.7883L22.5244 18.2819C22.348 18.3841 22.1547 18.4355 22.0011 18.4355C21.7056 18.4355 21.6093 18.2533 21.6093 17.9806V16.7523H22.5758V16.2121ZM13.7389 18.9302V17.2242C13.7389 16.5818 13.3295 16.1496 12.6696 16.1438C12.3226 16.1379 11.9647 16.246 11.7141 16.6274C11.5266 16.326 11.2311 16.1438 10.8159 16.1438C10.5256 16.1438 10.2418 16.229 10.0199 16.5473V16.2121H9.42822V18.9302H10.0251V17.4234C10.0251 16.9515 10.2867 16.7009 10.6909 16.7009C11.0834 16.7009 11.2819 16.9567 11.2819 17.4175V18.9302H11.8794V17.4234C11.8794 16.9515 12.1521 16.7009 12.5446 16.7009C12.9481 16.7009 13.1414 16.9567 13.1414 17.4175V18.9302H13.7389Z" fill="white"/>
</g>
</g>
</g>
</svg>
