<svg width="28" height="25" viewBox="0 0 28 25" fill="none" xmlns="http://www.w3.org/2000/svg">
<path d="M20.9498 9.11103L16.8434 12.7343H19.9232C19.9232 15.7325 17.1616 18.1691 13.7636 18.1691C12.7267 18.1691 11.7412 17.9427 10.8891 17.5351L9.39027 18.8576C10.653 19.5641 12.1518 19.9808 13.7636 19.9808C18.3011 19.9808 21.9764 16.738 21.9764 12.7343H25.0561L20.9498 9.11103ZM7.60399 12.7343C7.60399 9.73604 10.3655 7.29941 13.7636 7.29941C14.8004 7.29941 15.786 7.52587 16.6381 7.93348L18.1369 6.611C16.8742 5.90447 15.3753 5.48779 13.7636 5.48779C9.22602 5.48779 5.5508 8.73059 5.5508 12.7343H2.47101L6.5774 16.3575L10.6838 12.7343H7.60399Z" fill="white"/>
</svg>
