<svg width="21" height="18" viewBox="0 0 21 18" fill="none" xmlns="http://www.w3.org/2000/svg">
<path d="M14.7048 11.1307H13.8127L13.4965 10.8617C14.6031 9.72581 15.2694 8.25115 15.2694 6.64696C15.2694 3.06991 11.9833 0.17041 7.92922 0.17041C3.87519 0.17041 0.58905 3.06991 0.58905 6.64696C0.58905 10.224 3.87519 13.1235 7.92922 13.1235C9.74733 13.1235 11.4186 12.5356 12.706 11.5592L13.0109 11.8382V12.6253L18.6572 17.5973L20.3398 16.1127L14.7048 11.1307V11.1307ZM7.92922 11.1307C5.11737 11.1307 2.84756 9.12797 2.84756 6.64696C2.84756 4.16594 5.11737 2.16319 7.92922 2.16319C10.7411 2.16319 13.0109 4.16594 13.0109 6.64696C13.0109 9.12797 10.7411 11.1307 7.92922 11.1307Z" fill="#6E6E82"/>
</svg>
