<svg width="22" height="17" viewBox="0 0 22 17" fill="none" xmlns="http://www.w3.org/2000/svg">
<path d="M10.9457 4.82693C10.6216 4.83525 10.3127 4.93565 10.0777 5.10904L3.46426 10.0331C3.21102 10.2219 3.06484 10.4809 3.05786 10.7533C3.05089 11.0256 3.18369 11.289 3.42706 11.4854C3.67043 11.6818 4.00443 11.7952 4.35559 11.8006C4.70674 11.806 5.04628 11.703 5.29951 11.5142L10.9953 7.27616L16.6911 11.5142C16.9444 11.703 17.2839 11.806 17.6351 11.8006C17.9862 11.7952 18.3202 11.6818 18.5636 11.4854C18.807 11.289 18.9398 11.0256 18.9328 10.7533C18.9258 10.4809 18.7796 10.2219 18.5264 10.0331L11.913 5.10904C11.7844 5.01408 11.6325 4.94018 11.4663 4.89171C11.3002 4.84324 11.1231 4.82121 10.9457 4.82693Z" fill="#6E6E82"/>
</svg>
