<svg width="50" height="35" viewBox="0 0 50 35" fill="none" xmlns="http://www.w3.org/2000/svg">
<rect width="50" height="35" rx="3" fill="#00579F"/>
<path d="M22.4664 23.535H19.3882L21.3136 12.4995H24.3916L22.4664 23.535Z" fill="white"/>
<path d="M33.6256 12.7696C33.0184 12.5463 32.0554 12.2998 30.8646 12.2998C27.8247 12.2998 25.684 13.8024 25.6709 15.9507C25.6457 17.5358 27.2036 18.4161 28.3688 18.9446C29.5597 19.4846 29.9645 19.8371 29.9645 20.3185C29.9524 21.0578 29.0022 21.3986 28.1159 21.3986C26.8869 21.3986 26.2284 21.2229 25.2277 20.8116L24.8224 20.6353L24.3916 23.1125C25.1136 23.4174 26.4437 23.6879 27.8247 23.6998C31.0546 23.6998 33.1574 22.2204 33.1823 19.9311C33.1946 18.6748 32.372 17.7122 30.5985 16.9257C29.5218 16.4207 28.8625 16.0802 28.8625 15.5636C28.8751 15.0939 29.4201 14.6129 30.6355 14.6129C31.6362 14.5893 32.3715 14.8123 32.9285 15.0354L33.2069 15.1526L33.6256 12.7696Z" fill="white"/>
<path d="M37.7167 19.6255C37.9702 18.9916 38.9457 16.5379 38.9457 16.5379C38.9329 16.5614 39.1987 15.8922 39.3507 15.4814L39.5658 16.4322C39.5658 16.4322 40.1487 19.0738 40.2753 19.6255C39.7942 19.6255 38.3247 19.6255 37.7167 19.6255ZM41.5164 12.4995H39.1354C38.4011 12.4995 37.8433 12.6989 37.5265 13.4151L32.9541 23.5349H36.184C36.184 23.5349 36.7158 22.1728 36.8301 21.8795C37.1844 21.8795 40.3265 21.8795 40.7823 21.8795C40.8707 22.2669 41.1496 23.5349 41.1496 23.5349H43.9998L41.5164 12.4995Z" fill="white"/>
<path d="M16.8173 12.4995L13.8026 20.0247L13.4732 18.4985C12.9158 16.7375 11.1679 14.8241 9.21729 13.8728L11.9786 23.5233H15.2338L20.0723 12.4995H16.8173Z" fill="white"/>
<path d="M11.0033 12.4995H6.05067L6 12.7225C9.86336 13.6383 12.422 15.8457 13.4732 18.4989L12.3966 13.4271C12.2193 12.7223 11.6746 12.5228 11.0033 12.4995Z" fill="#FAA61A"/>
</svg>
