<svg width="207" height="40" viewBox="0 0 207 40" fill="none" xmlns="http://www.w3.org/2000/svg">
<g clip-path="url(#clip0)">
<path d="M13.7345 5.13086L0.431396 16.2538V34.9343H4.86574V18.3218L13.7345 10.8805L22.6032 18.3218V30.4999H13.7345V16.6196L9.30011 20.3413V30.4999V34.9343H13.7345H22.6032H27.0375V30.4999V16.2538L13.7345 5.13086Z" fill="#FF521D"/>
<path d="M140.115 14.1392H144.803V34.9343H148.135V14.1392H152.151L152.821 10.8657H140.115V14.1392Z" fill="#272D33"/>
<path d="M99.9056 34.9343V10.8657H96.573V20.9694H90.1171V10.8657H86.7844V34.9343H90.1171V24.2428H96.573V34.9343H99.9056Z" fill="#272D33"/>
<path d="M118.605 10.8657H110.279L105.925 31.6588H102.521V34.9322H121.641L122.324 31.6588H118.607V10.8657H118.605ZM115.27 31.6609H109.267L112.734 14.1413H115.27V31.6609Z" fill="#272D33"/>
<path d="M82.497 31.6609H75.2819V24.2428H81.4016L82.074 20.9694H75.2819V14.1392H81.4016L82.074 10.8657H71.9471V34.9343H81.8245L82.497 31.6609Z" fill="#272D33"/>
<path d="M45.2594 10.8657H43.4916L37.558 34.9322H40.7659L42.0008 29.7006H45.2594H48.518L49.753 34.9322H52.9609L47.0272 10.8657H45.2594ZM45.2594 26.5816H42.7388L45.2594 15.9091L47.78 26.5816H45.2594Z" fill="#272D33"/>
<path d="M131.942 10.8657H130.174L124.24 34.9322H127.448L128.683 29.7006H131.942H135.2L136.435 34.9322H139.643L133.71 10.8657H131.942ZM131.942 26.5816H129.421L131.942 15.9091L134.462 26.5816H131.942Z" fill="#272D33"/>
<path d="M160.385 10.8657H158.618L152.684 34.9322H155.892L157.127 29.7006H160.385H163.644L164.879 34.9322H168.087L162.153 10.8657H160.385ZM160.385 26.5816H157.865L160.385 15.9091L162.906 26.5816H160.385Z" fill="#272D33"/>
<path d="M59.5395 29.7027C59.5395 29.7027 65.4012 26.3194 66.0673 25.9282C66.9491 25.4101 67.9176 24.6319 67.9176 22.9888C67.9176 20.9419 67.9176 14.4204 67.9176 14.2703C67.9176 12.0922 66.2576 10.8657 64.5426 10.8657C61.9818 10.8657 56.2047 10.8657 56.2047 10.8657V34.9322H59.5395V29.7027ZM64.5659 21.8617C64.5659 22.9296 64.236 23.416 63.3838 23.9066C62.7177 24.2914 59.5374 26.1269 59.5374 26.1269V14.1392C59.8524 14.1392 63.5593 14.1392 63.5593 14.1392C64.2001 14.1392 64.568 14.5452 64.568 15.1478C64.5701 15.1499 64.5659 20.7939 64.5659 21.8617Z" fill="#272D33"/>
</g>
<defs>
<clipPath id="clip0">
<rect width="206.253" height="39.0722" fill="white" transform="translate(0.431519 0.536133)"/>
</clipPath>
</defs>
</svg>
